<svg id="Capa_1" enable-background="new 0 0 512 512" height="512" viewBox="0 0 512 512" width="512" xmlns="http://www.w3.org/2000/svg"><g><g><g><g><path d="m342.875 504.5v-61.775c0-27.812-18.928-52.055-45.91-58.8l-75.31-18.827h-80.813l-75.31 18.827c-26.981 6.745-45.91 30.988-45.91 58.8v61.775z" fill="#707dd3"/></g><g><path d="m306.649 387.233c3.533 7.724 5.488 16.27 5.488 25.187v92.08h30.738v-61.775c0-24.348-14.508-45.961-36.226-55.492z" fill="#5766cb"/></g><g><path d="m249.392 372.032 30.131 44.151-32.469 49.354 6.061 11.689-15.153 27.274h-30.088z" fill="#5766cb"/></g><g><path d="m113.106 372.032-30.131 44.151 32.469 49.354-6.061 11.689 15.153 27.274h30.088z" fill="#5766cb"/></g><g><path d="m249.392 372.032-41.518 132.468h-53.25l-41.518-132.468z" fill="#b1e4f9"/></g><g><path d="m181.249 504.5h26.625l-18.399-51.681h-8.226-8.226l-18.399 51.681z" fill="#da4a54"/></g><g><path d="m181.249 452.819h8.226l15.405-23.684-23.631-23.631-23.631 23.631 15.405 23.684z" fill="#dd636e"/></g><g><path d="m113.106 372.032 39.101 62.514 29.042-29.042-40.406-40.406h-.002z" fill="#e4f6ff"/></g><g><path d="m249.392 372.032-39.101 62.514-29.042-29.042 40.406-40.406h.002z" fill="#e4f6ff"/></g><g><path d="m221.655 365.098-40.406 40.406-40.406-40.406v-46.468h80.812z" fill="#f1d0a5"/></g><g><path d="m140.843 340.992c12.645 4.484 26.244 6.933 40.406 6.933s27.762-2.449 40.406-6.933v-22.362h-80.813v22.362z" fill="#f1b986"/></g><g><path d="m80.233 127.709v98.996c0 55.79 45.227 101.016 101.016 101.016s101.016-45.227 101.016-101.016v-98.996z" fill="#f1d0a5"/></g><g><path d="m260.042 127.709v98.996c0 52.034-39.344 94.872-89.904 100.405 3.65.4 7.356.611 11.112.611 55.79 0 101.016-45.227 101.016-101.016v-98.996z" fill="#f1b986"/></g><g><path d="m181.249 7.5c-66.948 0-121.219 54.272-121.219 121.22v47.478h20.203v50.508l40.407-72.732s21.105 16.524 60.61 16.524 60.61-16.524 60.61-16.524l40.406 72.732v-50.508h20.203v-47.478c-.001-66.948-54.272-121.22-121.22-121.22z" fill="#ffe07d"/></g><g><path d="m302.468 128.72c0-28.499-9.839-54.696-26.3-75.392.912 28.672-3.39 71.068-29.162 109.912l35.259 63.467v-50.508h20.203z" fill="#ffd064"/></g><g><path d="m292.367 226.705h-10.102v-60.61h10.102c16.737 0 30.305 13.568 30.305 30.305 0 16.737-13.568 30.305-30.305 30.305z" fill="#f1d0a5"/></g><g><path d="m70.131 226.705h10.102v-60.61h-10.102c-16.737 0-30.305 13.568-30.305 30.305 0 16.737 13.568 30.305 30.305 30.305z" fill="#f1d0a5"/></g></g></g><g><g><g><circle cx="421.668" cy="110.537" fill="#90d8f9" r="70.711"/></g></g></g><g><path d="m366.109 213.573h111.118v32.325h-111.118z" fill="#dd636e"/></g><g><path d="m298.78 376.654-69.625-17.409v-35.19c33.754-16.678 57.64-50.398 60.347-89.851h2.865c20.846 0 37.805-16.959 37.805-37.805 0-14.492-8.201-27.098-20.201-33.441v-34.238c0-9.853-1.121-19.686-3.333-29.225-.936-4.035-4.964-6.549-9.001-5.612-4.035.936-6.548 4.965-5.611 9 1.954 8.43 2.945 17.122 2.945 25.836v29.975c-.861-.059-1.728-.1-2.604-.1h-10.102c-4.143 0-7.5 3.358-7.5 7.5v31.665l-26.351-47.43c-1.066-1.918-2.918-3.273-5.068-3.708-2.149-.434-4.385.092-6.112 1.446-.19.149-19.489 14.929-55.985 14.929-18.867 0-33.082-4.06-41.684-7.465-9.339-3.697-14.282-7.449-14.302-7.464-1.728-1.353-3.96-1.88-6.112-1.446-2.15.436-4.002 1.791-5.068 3.708l-26.351 47.43v-31.665c0-4.142-3.357-7.5-7.5-7.5h-10.101c-.875 0-1.74.041-2.6.099v-29.973c0-30.373 11.828-58.932 33.302-80.416 21.486-21.476 50.046-33.304 80.418-33.304 40.732 0 78.597 21.998 98.817 57.409 2.054 3.598 6.636 4.848 10.231 2.794 3.598-2.054 4.849-6.635 2.794-10.232-22.882-40.075-65.738-64.971-111.842-64.971-34.378 0-66.703 13.387-91.024 37.698-24.308 24.319-37.696 56.644-37.696 91.022v34.237c-12.003 6.342-20.205 18.95-20.205 33.443 0 20.846 16.959 37.805 37.805 37.805h2.865c2.707 39.453 26.593 73.173 60.347 89.851v35.188l-69.629 17.41c-30.377 7.588-51.593 34.76-51.593 66.076v8.01c0 4.142 3.357 7.5 7.5 7.5s7.5-3.358 7.5-7.5v-8.01c0-24.419 16.542-45.607 40.229-51.524l28.442-7.112-19.014 27.861c-1.714 2.511-1.741 5.81-.07 8.35l30.054 45.681-4.038 7.787c-1.157 2.232-1.119 4.896.102 7.095l8.963 16.132h-25.066v-12.703c0-4.142-3.357-7.5-7.5-7.5s-7.5 3.358-7.5 7.5v12.703h-44.602v-11.26c0-4.142-3.357-7.5-7.5-7.5s-7.5 3.358-7.5 7.5v18.76c0 4.142 3.357 7.5 7.5 7.5h323.25c4.143 0 7.5-3.358 7.5-7.5v-61.77c0-31.316-21.216-58.488-51.591-66.076zm-58.384 92.335 4.208 8.114-11.055 19.897h-15.465l33.836-107.958 18.575 27.217-29.707 45.155c-1.492 2.268-1.642 5.166-.392 7.575zm-101.852-95.584 32.098 32.099-17.075 17.075-28.629-45.772zm42.705 42.706 14.03 14.03-9.872 15.179h-8.314l-9.872-15.179zm42.704-42.705 13.605 3.402-28.628 45.771-17.074-17.075zm-17.738 67.431c1.21.784 2.624 1.209 4.075 1.209.282 0 .565-.016.849-.048 2.271-.258 4.299-1.538 5.511-3.475l8.104-12.956-17.332 55.299-9.637-27.068zm-60.366-2.314c1.212 1.938 3.24 3.217 5.511 3.475.283.032.566.048.848.048 1.452 0 2.866-.425 4.076-1.209l8.431 12.961-9.637 27.069-17.333-55.303zm32.465 21.796h5.869l13.06 36.681h-31.988zm111.452-286.723h2.602c12.574 0 22.805 10.23 22.805 22.805s-10.23 22.805-22.805 22.805h-2.602zm-242.44 22.804c0-12.575 10.23-22.805 22.805-22.805h2.602v45.609h-2.602c-12.574.001-22.805-10.229-22.805-22.804zm40.431 32.204 35.61-64.096c9.86 5.375 29.451 13.488 57.883 13.488s48.022-8.113 57.883-13.488l35.61 64.096c-1.016 50.692-42.562 91.617-93.492 91.617s-92.479-40.925-93.494-91.617zm93.492 106.618c11.467 0 22.522-1.794 32.906-5.106v31.875l-32.906 32.906-32.906-32.906v-31.875c10.384 3.312 21.439 5.106 32.906 5.106zm-63.354 141.882 4.208-8.114c1.25-2.41 1.1-5.307-.393-7.575l-29.707-45.155 18.575-27.218 33.836 107.958h-15.466zm217.476 19.896h-44.596v-12.703c0-4.142-3.357-7.5-7.5-7.5s-7.5 3.358-7.5 7.5v12.703h-25.067l8.963-16.132c1.222-2.198 1.26-4.863.103-7.095l-4.038-7.787 30.054-45.681c1.671-2.54 1.644-5.838-.07-8.35l-19.013-27.86 28.438 7.111c23.686 5.917 40.228 27.104 40.228 51.523v54.271z"/><path d="m421.668 188.748c43.126 0 78.211-35.085 78.211-78.211s-35.085-78.211-78.211-78.211-78.212 35.085-78.212 78.211 35.086 78.211 78.212 78.211zm-62.751-70.711h17.272c.951 17.866 5.271 33.807 11.897 46.015-15.777-9.936-26.867-26.642-29.169-46.015zm70.251 53.7v-53.7h22.919c-1.578 23.318-10.306 46.834-22.919 53.7zm0-68.7v-53.7c12.613 6.866 21.341 30.382 22.919 53.7zm-15-53.701v53.7h-22.92c1.578-23.318 10.307-46.834 22.92-53.7zm0 68.701v53.7c-12.613-6.866-21.342-30.382-22.92-53.7zm41.082 46.015c6.625-12.208 10.946-28.149 11.896-46.015h17.272c-2.302 19.373-13.392 36.079-29.168 46.015zm29.168-61.015h-17.272c-.951-17.866-5.271-33.807-11.896-46.015 15.776 9.936 26.866 26.642 29.168 46.015zm-96.332-46.016c-6.625 12.208-10.946 28.149-11.897 46.015h-17.272c2.302-19.373 13.392-36.079 29.169-46.015z"/><path d="m477.231 206.07h-62.851c-4.143 0-7.5 3.358-7.5 7.5s3.357 7.5 7.5 7.5h55.351v17.33h-96.12v-17.33h5.77c4.143 0 7.5-3.358 7.5-7.5s-3.357-7.5-7.5-7.5h-13.27c-4.143 0-7.5 3.358-7.5 7.5v32.33c0 4.142 3.357 7.5 7.5 7.5h111.12c4.143 0 7.5-3.358 7.5-7.5v-32.33c0-4.142-3.357-7.5-7.5-7.5z"/></g></g></svg>